<svg xmlns="http://www.w3.org/2000/svg" viewBox="0 0 64 64" role="img" aria-label="Símbolo de acessibilidade">
  <circle cx="32" cy="32" r="32" fill="#0a5dc2"/>
  <g fill="#ffffff">
    <!-- cabeça -->
    <circle cx="32" cy="15" r="5"/>
    <!-- corpo, braços abertos e pernas (símbolo universal de acessibilidade) -->
    <path d="M32 21
             c-1.6 0-2.9 1.3-2.9 2.9v6.4
             l-9.6-1.7c-1.4-0.25-2.7 0.7-2.95 2.1
             c-0.25 1.4 0.7 2.7 2.1 2.95
             l10.45 1.85
             l-3.6 12.6
             c-0.45 1.55 0.46 3.16 2.0 3.6
             c1.55 0.45 3.16-0.46 3.6-2.0
             l2.55-8.9 2.55 8.9
             c0.45 1.55 2.06 2.45 3.6 2.0
             c1.55-0.45 2.45-2.06 2.0-3.6
             l-3.6-12.6 10.45-1.85
             c1.4-0.25 2.35-1.58 2.1-2.95
             c-0.25-1.4-1.58-2.35-2.95-2.1
             l-9.6 1.7v-6.4
             c0-1.6-1.3-2.9-2.9-2.9z"/>
  </g>
</svg>
